<?xml version="1.0" encoding="UTF-8" standalone="no"?>
<!-- Uploaded to: SVG Repo, www.svgrepo.com, Generator: SVG Repo Mixer Tools -->

<svg
   fill="#000000"
   width="800px"
   height="800px"
   viewBox="-1 0 19 19"
   class="cf-icon-svg"
   version="1.1"
   id="svg1"
   sodipodi:docname="cog.svg"
   inkscape:version="1.4.1 (93de688d07, 2025-03-30)"
   xmlns:inkscape="http://www.inkscape.org/namespaces/inkscape"
   xmlns:sodipodi="http://sodipodi.sourceforge.net/DTD/sodipodi-0.dtd"
   xmlns="http://www.w3.org/2000/svg"
   xmlns:svg="http://www.w3.org/2000/svg">
  <defs
     id="defs1" />
  <sodipodi:namedview
     id="namedview1"
     pagecolor="#505050"
     bordercolor="#ffffff"
     borderopacity="1"
     inkscape:showpageshadow="0"
     inkscape:pageopacity="0"
     inkscape:pagecheckerboard="1"
     inkscape:deskcolor="#505050"
     inkscape:zoom="1.45"
     inkscape:cx="400"
     inkscape:cy="400"
     inkscape:window-width="2504"
     inkscape:window-height="1371"
     inkscape:window-x="0"
     inkscape:window-y="0"
     inkscape:window-maximized="1"
     inkscape:current-layer="svg1" />
  <path
     d="M16.014 8.86v1.44a.587.587 0 0 1-.468.556l-1.182.204a.463.463 0 0 1-.114.006 5.902 5.902 0 0 1-.634 1.528.455.455 0 0 1 .078.084l.691.98a.586.586 0 0 1-.062.725l-1.02 1.02a.586.586 0 0 1-.724.061l-.98-.69a.444.444 0 0 1-.085-.078 5.908 5.908 0 0 1-1.544.637.502.502 0 0 1 0 .175l-.182 1.053a.667.667 0 0 1-.633.532h-1.31a.667.667 0 0 1-.633-.532l-.182-1.053a.495.495 0 0 1 0-.175 5.908 5.908 0 0 1-1.544-.637.444.444 0 0 1-.085.077l-.98.691a.586.586 0 0 1-.725-.062l-1.02-1.02a.586.586 0 0 1-.061-.723l.691-.98a.454.454 0 0 1 .077-.085 5.901 5.901 0 0 1-.633-1.528.466.466 0 0 1-.114-.006l-1.182-.204a.586.586 0 0 1-.468-.556V8.86a.586.586 0 0 1 .468-.556L2.636 8.1a.437.437 0 0 1 .114-.005 5.912 5.912 0 0 1 .633-1.528.466.466 0 0 1-.077-.085l-.691-.98a.587.587 0 0 1 .061-.724l1.02-1.02a.587.587 0 0 1 .725-.062l.98.691a.444.444 0 0 1 .085.078 5.903 5.903 0 0 1 1.528-.634.433.433 0 0 1 .005-.114l.204-1.182a.586.586 0 0 1 .556-.468h1.442a.586.586 0 0 1 .556.468l.204 1.182a.448.448 0 0 1 .005.114 5.908 5.908 0 0 1 1.528.634.444.444 0 0 1 .085-.078l.98-.691a.586.586 0 0 1 .724.062l1.02 1.02a.586.586 0 0 1 .062.724l-.691.98a.467.467 0 0 1-.078.085 5.902 5.902 0 0 1 .634 1.528.434.434 0 0 1 .114.005l1.182.204a.587.587 0 0 1 .468.556zm-4.955.72a2.559 2.559 0 1 0-2.56 2.56 2.559 2.559 0 0 0 2.56-2.56z"
     id="path1"
     style="fill:#b0b4b8;fill-opacity:1" />
</svg>
